<?xml version="1.0" encoding="utf-8"?>
<!-- Svg Vector Icons : http://www.onlinewebfonts.com/icon -->
<!DOCTYPE svg PUBLIC "-//W3C//DTD SVG 1.1//EN" "http://www.w3.org/Graphics/SVG/1.1/DTD/svg11.dtd">
<svg version="1.1" xmlns="http://www.w3.org/2000/svg" xmlns:xlink="http://www.w3.org/1999/xlink" x="0px" y="0px" viewBox="0 0 1000 1000" enable-background="new 0 0 1000 1000" xml:space="preserve">
<metadata> Svg Vector Icons : http://www.onlinewebfonts.com/icon </metadata>
<g><g transform="translate(0.000000,511.000000) scale(0.100000,-0.100000)"><path d="M550.7,3286.9c-178.3-47.9-349-199.4-414.2-368.2c-34.5-90.1-36.4-184.1-36.4-2817.2v-2723.3l53.7-109.3c65.2-130.4,207.1-266.6,335.6-316.4c86.3-32.6,266.6-34.5,4443.6-40.3c2840.3-1.9,4387.9,1.9,4455.1,15.4c211,38.3,383.6,170.7,469.9,360.5l42.2,90.1V111v2732.9l-46,99.7c-53.7,118.9-197.5,260.8-324.1,318.3l-90.1,42.2l-4401.4,3.8C1601.6,3309.9,617.8,3306,550.7,3286.9z M9393.7,2797.8l55.6-55.6v-433.4v-433.4H5000H550.7v433.4v433.4l55.6,55.6l55.6,55.6H5000h4338.1L9393.7,2797.8z M9449.3-1060.8v-1459.4l-55.6-55.6l-55.6-55.6H5000H661.9l-55.6,55.6l-55.6,55.6v1459.4V398.6H5000h4449.3V-1060.8z"/></g></g>
</svg>