<svg width="526.9593139648437px" height="122px" xmlns="http://www.w3.org/2000/svg" viewBox="-13.47965698242183 14 526.9593139648437 122" style="background: rgba(0, 0, 0, 0);" preserveAspectRatio="xMidYMid"><defs><linearGradient id="editing-shiny-gradient" x1="0.04322727117869957" x2="0.9567727288213004" y1="0.2966316784620999" y2="0.7033683215379001" gradientUnits="objectBoundingBox"><stop offset="0.0" stop-color="#ffb200"></stop><stop offset="0.5" stop-color="#e10057"></stop><stop offset="1.0" stop-color="#5A1A80"></stop></linearGradient><linearGradient id="editing-shiny-gradient2" x1="0" x2="0" y1="0" y2="1"><stop offset="0.2" stop-color="#fff" stop-opacity="0.8"></stop><stop offset="0.8" stop-color="#fff" stop-opacity="0"></stop></linearGradient><filter id="editing-shiny2" x="-100%" y="-100%" width="300%" height="300%"><feMorphology operator="erode" radius="2"></feMorphology></filter><filter id="editing-shiny" x="-100%" y="-100%" width="300%" height="300%"><feFlood flood-color="#fff" result="flood"></feFlood><feConvolveMatrix in="SourceGraphic" result="conv" order="8,8" divisor="1" kernelMatrix="0 0 0 0 0 0 0 0 0 0 0 1 1 0 0 0 0 0 0 1 1 0 0 0 0 0 1 0 0 1 0 0 0 0 1 0 0 1 0 0 0 1 0 0 0 0 1 0 0 1 1 0 0 1 1 0 0 0 0 1 1 0 0 0 "></feConvolveMatrix><feOffset dx="0" dy="4" in="conv" result="offset"></feOffset><feComposite operator="in" in="flood" in2="offset" result="comp"></feComposite><feGaussianBlur in="offset" stdDeviation="3" result="shadow"></feGaussianBlur><feColorMatrix in="shadow" type="matrix" values="0.7 0 0 0 0  0 0.7 0 0 0  0 0 0.7 0 0  0 0 0 0.3 0" result="dark-shadow"></feColorMatrix><feOffset dx="0" dy="4" in="dark-shadow" result="offset-shadow"></feOffset><feOffset dx="0" dy="2" in="conv" result="offset-2"></feOffset><feComposite operator="out" in="offset" in2="offset-2" result="edge-diff"></feComposite><feGaussianBlur in="edge-diff" stdDeviation="1" result="edge-blur"></feGaussianBlur><feColorMatrix in="edge-blur" result="edge-shadow" type="matrix" values="0 0 0 0 0  0 0 0 0 0  0 0 0 0 0  0 0 0 0.5 0"></feColorMatrix><feComposite operator="in" in="edge-shadow" in2="offset" result="edge-shadow-in"></feComposite><feOffset dx="0" dy="1" in="edge-shadow-in" result="edge-shadow-final"></feOffset><feMerge result="out"><feMergeNode in="offset-shadow"></feMergeNode><feMergeNode in="comp"></feMergeNode><feMergeNode in="edge-shadow-final"></feMergeNode><feMergeNode in="SourceGraphic"></feMergeNode></feMerge></filter></defs><g filter="url(#editing-shiny)"><g transform="translate(64.44959744811058, 99)"><path d="M30.21-33.92L30.21-33.92L30.21-33.92Q25.02-33.92 21.25-35.65L21.25-35.65L19.20-25.28L31.55-25.28L31.55-25.28Q31.55-21.89 29.86-19.74L29.86-19.74L29.86-19.74Q28.16-17.60 25.09-17.60L25.09-17.60L25.09-17.60Q21.76-17.60 18.69-18.82L18.69-18.82L18.69-18.82Q18.05-19.07 17.98-19.14L17.98-19.14L14.34 0L0.38 0L8.51-42.24L37.06-42.24L37.06-42.24Q37.06-38.34 35.23-36.13L35.23-36.13L35.23-36.13Q33.41-33.92 30.21-33.92ZM37.79-1.92L37.79-1.92L37.79-1.92Q36.29-3.58 35.62-6.21L35.62-6.21L35.62-6.21Q34.94-8.83 34.94-13.12L34.94-13.12L34.94-13.12Q34.94-17.41 36.42-21.31L36.42-21.31L36.42-21.31Q37.89-25.22 40.58-28.03L40.58-28.03L40.58-28.03Q46.08-33.92 55.17-33.92L55.17-33.92L55.17-33.92Q58.43-33.92 60.80-32.83L60.80-32.83L71.74-33.92L67.01-8.96L67.01-8.96Q66.82-8.19 66.82-6.78L66.82-6.78L66.82-6.78Q66.82-5.38 67.68-4.48L67.68-4.48L67.68-4.48Q68.54-3.58 69.82-3.46L69.82-3.46L69.82-3.46Q69.18-1.28 66.85 0L66.85 0L66.85 0Q64.51 1.28 61.89 1.28L61.89 1.28L61.89 1.28Q59.26 1.28 57.50 0.29L57.50 0.29L57.50 0.29Q55.74-0.70 55.23-2.37L55.23-2.37L55.23-2.37Q54.21-0.77 52.03 0.26L52.03 0.26L52.03 0.26Q49.86 1.28 46.94 1.28L46.94 1.28L46.94 1.28Q44.03 1.28 41.66 0.51L41.66 0.51L41.66 0.51Q39.30-0.26 37.79-1.92ZM51.30-27.90L51.30-27.90L51.30-27.90Q50.56-26.75 49.92-24.80L49.92-24.80L49.92-24.80Q49.28-22.85 48.22-17.63L48.22-17.63L48.22-17.63Q47.17-12.42 47.17-8.70L47.17-8.70L47.17-8.70Q47.17-4.99 47.74-3.90L47.74-3.90L47.74-3.90Q48.32-2.82 49.34-2.82L49.34-2.82L49.34-2.82Q51.39-2.82 52.90-4.77L52.90-4.77L52.90-4.77Q54.40-6.72 54.98-10.18L54.98-10.18L58.37-28.93L58.37-28.93Q57.02-30.08 55.46-30.08L55.46-30.08L55.46-30.08Q53.89-30.08 52.96-29.57L52.96-29.57L52.96-29.57Q52.03-29.06 51.30-27.90ZM94.34-22.46L94.34-22.46L94.34-22.46Q95.23-24.83 95.23-26.88L95.23-26.88L95.23-26.88Q95.23-30.66 92.16-30.66L92.16-30.66L92.16-30.66Q90.56-30.66 89.25-29.22L89.25-29.22L89.25-29.22Q87.94-27.78 87.94-25.98L87.94-25.98L87.94-25.98Q87.94-24.70 88.96-23.68L88.96-23.68L88.96-23.68Q90.43-22.27 94.21-19.97L94.21-19.97L94.21-19.97Q97.98-17.66 99.42-15.78L99.42-15.78L99.42-15.78Q100.86-13.89 100.86-11.30L100.86-11.30L100.86-11.30Q100.86-8.70 99.62-6.34L99.62-6.34L99.62-6.34Q98.37-3.97 96.13-2.30L96.13-2.30L96.13-2.30Q91.33 1.28 83.65 1.28L83.65 1.28L83.65 1.28Q79.49 1.28 76.29-0.90L76.29-0.90L76.29-0.90Q73.09-3.01 73.09-5.50L73.09-5.50L73.09-5.50Q73.09-8 74.91-9.47L74.91-9.47L74.91-9.47Q76.74-10.94 79.42-10.94L79.42-10.94L79.42-10.94Q82.11-10.94 83.78-9.92L83.78-9.92L83.78-9.92Q82.94-7.81 82.94-6.40L82.94-6.40L82.94-6.40Q82.94-2.18 86.53-2.18L86.53-2.18L86.53-2.18Q88.06-2.18 89.09-3.14L89.09-3.14L89.09-3.14Q90.11-4.10 90.11-5.76L90.11-5.76L90.11-5.76Q90.11-9.02 84.61-12.48L84.61-12.48L84.61-12.48Q80.13-15.42 79.10-16.58L79.10-16.58L79.10-16.58Q77.38-18.62 77.38-21.18L77.38-21.18L77.38-21.18Q77.38-23.74 78.59-26.18L78.59-26.18L78.59-26.18Q79.81-28.61 82.05-30.34L82.05-30.34L82.05-30.34Q86.72-33.92 94.85-33.92L94.85-33.92L94.85-33.92Q99.01-33.92 101.47-32.26L101.47-32.26L101.47-32.26Q103.94-30.59 103.94-27.78L103.94-27.78L103.94-27.78Q103.94-24.96 102.24-23.36L102.24-23.36L102.24-23.36Q100.54-21.76 97.47-21.76L97.47-21.76L97.47-21.76Q95.36-21.76 94.34-22.46ZM138.50-7.10L138.50-7.10L138.50-7.10Q138.50-4.29 141.38-3.46L141.38-3.46L141.38-3.46Q140.67-1.09 137.92 0.19L137.92 0.19L137.92 0.19Q135.62 1.28 133.09 1.28L133.09 1.28L133.09 1.28Q130.56 1.28 129.25 0.61L129.25 0.61L129.25 0.61Q127.94-0.06 127.23-1.15L127.23-1.15L127.23-1.15Q126.08-2.82 126.08-5.95L126.08-5.95L126.08-5.95Q126.08-7.81 127.10-12.93L127.10-12.93L128-17.79L128-17.79Q129.09-23.36 129.09-25.41L129.09-25.41L129.09-25.41Q129.09-28.99 127.10-28.99L127.10-28.99L127.10-28.99Q124.61-28.99 123.01-25.34L123.01-25.34L123.01-25.34Q122.37-23.94 121.92-21.82L121.92-21.82L117.57 0L104.70 1.28L113.73-44.80L126.59-46.08L126.08-43.52L126.08-43.52Q124.29-33.66 122.75-30.34L122.75-30.34L122.75-30.34Q126.34-33.92 132.93-33.92L132.93-33.92L132.93-33.92Q139.90-33.92 141.18-29.31L141.18-29.31L141.18-29.31Q141.63-27.84 141.63-26.56L141.63-26.56L141.63-26.56Q141.63-25.28 141.54-24.29L141.54-24.29L141.54-24.29Q141.44-23.30 141.12-21.50L141.12-21.50L140.29-16.90L138.82-9.66L138.82-9.66Q138.50-8.19 138.50-7.10ZM161.92-3.52L161.92-3.52L161.92-3.52Q159.94 1.28 153.60 1.28L153.60 1.28L153.60 1.28Q150.34 1.28 148.29-0.96L148.29-0.96L148.29-0.96Q146.56-2.94 146.56-4.93L146.56-4.93L146.56-4.93Q146.56-10.11 148.93-20.22L148.93-20.22L151.30-32.64L164.29-33.92L160.38-13.70L160.38-13.70Q159.30-8.96 159.30-7.30L159.30-7.30L159.30-7.30Q159.30-3.65 161.92-3.52ZM152.45-41.54L152.45-41.54L152.45-41.54Q152.45-44.03 154.53-45.38L154.53-45.38L154.53-45.38Q156.61-46.72 159.62-46.72L159.62-46.72L159.62-46.72Q162.62-46.72 164.45-45.38L164.45-45.38L164.45-45.38Q166.27-44.03 166.27-41.54L166.27-41.54L166.27-41.54Q166.27-39.04 164.26-37.76L164.26-37.76L164.26-37.76Q162.24-36.48 159.23-36.48L159.23-36.48L159.23-36.48Q156.22-36.48 154.34-37.76L154.34-37.76L154.34-37.76Q152.45-39.04 152.45-41.54ZM181.31 1.28L181.31 1.28L181.31 1.28Q167.23 1.28 167.23-11.97L167.23-11.97L167.23-11.97Q167.23-21.38 172.42-27.46L172.42-27.46L172.42-27.46Q177.92-33.92 187.46-33.92L187.46-33.92L187.46-33.92Q194.37-33.92 197.89-30.72L197.89-30.72L197.89-30.72Q201.41-27.52 201.41-20.80L201.41-20.80L201.41-20.80Q201.41-10.56 195.90-4.61L195.90-4.61L195.90-4.61Q190.53 1.28 181.31 1.28ZM182.98-26.56L182.98-26.56L182.98-26.56Q182.21-24.83 181.60-22.24L181.60-22.24L181.60-22.24Q180.99-19.65 180.22-15.55L180.22-15.55L180.22-15.55Q179.46-11.46 179.46-6.40L179.46-6.40L179.46-6.40Q179.46-4.74 180-3.65L180-3.65L180-3.65Q180.54-2.56 182.02-2.56L182.02-2.56L182.02-2.56Q183.49-2.56 184.42-3.26L184.42-3.26L184.42-3.26Q185.34-3.97 186.05-5.63L186.05-5.63L186.05-5.63Q187.33-8.58 188.35-14.05L188.35-14.05L188.35-14.05Q189.38-19.52 189.47-21.89L189.47-21.89L189.47-21.89Q189.57-24.26 189.57-26.02L189.57-26.02L189.57-26.02Q189.57-27.78 189.06-28.93L189.06-28.93L189.06-28.93Q188.54-30.08 187.10-30.08L187.10-30.08L187.10-30.08Q185.66-30.08 184.70-29.18L184.70-29.18L184.70-29.18Q183.74-28.29 182.98-26.56ZM232.26 1.28L232.26 1.28L232.26 1.28Q224.51 1.28 224.51-4.74L224.51-4.74L224.51-4.74Q224.58-6.40 225.09-9.22L225.09-9.22L226.24-15.10L226.24-15.10Q227.97-23.42 227.97-25.28L227.97-25.28L227.97-25.28Q227.97-28.99 225.79-28.99L225.79-28.99L225.79-28.99Q222.14-28.99 220.22-19.46L220.22-19.46L216.45 0L203.58 1.28L210.24-32.70L220.74-33.92L219.71-27.65L219.71-27.65Q222.72-33.92 231.94-33.92L231.94-33.92L231.94-33.92Q236.42-33.92 238.30-32.03L238.30-32.03L238.30-32.03Q240.19-30.14 240.19-25.92L240.19-25.92L240.19-25.92Q240.19-21.95 238.14-12.67L238.14-12.67L238.14-12.67Q237.18-8.51 237.18-6.94L237.18-6.94L237.18-6.94Q237.18-5.38 238.05-4.48L238.05-4.48L238.05-4.48Q238.91-3.58 240.19-3.46L240.19-3.46L240.19-3.46Q239.55-1.28 237.34 0L237.34 0L237.34 0Q235.14 1.28 232.26 1.28ZM264.45-22.46L264.45-22.46L264.45-22.46Q265.34-24.83 265.34-26.88L265.34-26.88L265.34-26.88Q265.34-30.66 262.27-30.66L262.27-30.66L262.27-30.66Q260.67-30.66 259.36-29.22L259.36-29.22L259.36-29.22Q258.05-27.78 258.05-25.98L258.05-25.98L258.05-25.98Q258.05-24.70 259.07-23.68L259.07-23.68L259.07-23.68Q260.54-22.27 264.32-19.97L264.32-19.97L264.32-19.97Q268.10-17.66 269.54-15.78L269.54-15.78L269.54-15.78Q270.98-13.89 270.98-11.30L270.98-11.30L270.98-11.30Q270.98-8.70 269.73-6.34L269.73-6.34L269.73-6.34Q268.48-3.97 266.24-2.30L266.24-2.30L266.24-2.30Q261.44 1.28 253.76 1.28L253.76 1.28L253.76 1.28Q249.60 1.28 246.40-0.90L246.40-0.90L246.40-0.90Q243.20-3.01 243.20-5.50L243.20-5.50L243.20-5.50Q243.20-8 245.02-9.47L245.02-9.47L245.02-9.47Q246.85-10.94 249.54-10.94L249.54-10.94L249.54-10.94Q252.22-10.94 253.89-9.92L253.89-9.92L253.89-9.92Q253.06-7.81 253.06-6.40L253.06-6.40L253.06-6.40Q253.06-2.18 256.64-2.18L256.64-2.18L256.64-2.18Q258.18-2.18 259.20-3.14L259.20-3.14L259.20-3.14Q260.22-4.10 260.22-5.76L260.22-5.76L260.22-5.76Q260.22-9.02 254.72-12.48L254.72-12.48L254.72-12.48Q250.24-15.42 249.22-16.58L249.22-16.58L249.22-16.58Q247.49-18.62 247.49-21.18L247.49-21.18L247.49-21.18Q247.49-23.74 248.70-26.18L248.70-26.18L248.70-26.18Q249.92-28.61 252.16-30.34L252.16-30.34L252.16-30.34Q256.83-33.92 264.96-33.92L264.96-33.92L264.96-33.92Q269.12-33.92 271.58-32.26L271.58-32.26L271.58-32.26Q274.05-30.59 274.05-27.78L274.05-27.78L274.05-27.78Q274.05-24.96 272.35-23.36L272.35-23.36L272.35-23.36Q270.66-21.76 267.58-21.76L267.58-21.76L267.58-21.76Q265.47-21.76 264.45-22.46ZM277.44-6.40L277.44-6.40L277.44-6.40Q277.44-8.13 278.34-12.48L278.34-12.48L281.73-29.76L277.95-29.76L278.21-31.68L278.21-31.68Q285.89-33.98 293.31-39.62L293.31-39.62L296.38-39.62L294.85-32.64L299.84-32.64L299.26-29.76L294.34-29.76L291.07-12.48L291.07-12.48Q290.24-8.51 290.24-7.17L290.24-7.17L290.24-7.17Q290.24-4.10 292.93-3.46L292.93-3.46L292.93-3.46Q292.29-1.28 289.98 0L289.98 0L289.98 0Q287.68 1.28 284.42 1.28L284.42 1.28L284.42 1.28Q281.15 1.28 279.30-0.77L279.30-0.77L279.30-0.77Q277.44-2.82 277.44-6.40ZM302.05-1.92L302.05-1.92L302.05-1.92Q300.54-3.58 299.87-6.21L299.87-6.21L299.87-6.21Q299.20-8.83 299.20-13.12L299.20-13.12L299.20-13.12Q299.20-17.41 300.67-21.31L300.67-21.31L300.67-21.31Q302.14-25.22 304.83-28.03L304.83-28.03L304.83-28.03Q310.34-33.92 319.42-33.92L319.42-33.92L319.42-33.92Q322.69-33.92 325.06-32.83L325.06-32.83L336-33.92L331.26-8.96L331.26-8.96Q331.07-8.19 331.07-6.78L331.07-6.78L331.07-6.78Q331.07-5.38 331.94-4.48L331.94-4.48L331.94-4.48Q332.80-3.58 334.08-3.46L334.08-3.46L334.08-3.46Q333.44-1.28 331.10 0L331.10 0L331.10 0Q328.77 1.28 326.14 1.28L326.14 1.28L326.14 1.28Q323.52 1.28 321.76 0.29L321.76 0.29L321.76 0.29Q320-0.70 319.49-2.37L319.49-2.37L319.49-2.37Q318.46-0.77 316.29 0.26L316.29 0.26L316.29 0.26Q314.11 1.28 311.20 1.28L311.20 1.28L311.20 1.28Q308.29 1.28 305.92 0.51L305.92 0.51L305.92 0.51Q303.55-0.26 302.05-1.92ZM315.55-27.90L315.55-27.90L315.55-27.90Q314.82-26.75 314.18-24.80L314.18-24.80L314.18-24.80Q313.54-22.85 312.48-17.63L312.48-17.63L312.48-17.63Q311.42-12.42 311.42-8.70L311.42-8.70L311.42-8.70Q311.42-4.99 312-3.90L312-3.90L312-3.90Q312.58-2.82 313.60-2.82L313.60-2.82L313.60-2.82Q315.65-2.82 317.15-4.77L317.15-4.77L317.15-4.77Q318.66-6.72 319.23-10.18L319.23-10.18L322.62-28.93L322.62-28.93Q321.28-30.08 319.71-30.08L319.71-30.08L319.71-30.08Q318.14-30.08 317.22-29.57L317.22-29.57L317.22-29.57Q316.29-29.06 315.55-27.90ZM359.49-17.98L359.49-17.98L359.49-17.98Q361.79-22.08 361.79-26.24L361.79-26.24L361.79-26.24Q361.79-28.99 359.81-28.99L359.81-28.99L359.81-28.99Q358.27-28.99 356.67-26.37L356.67-26.37L356.67-26.37Q355.01-23.74 354.50-20.35L354.50-20.35L351.17 0L337.92 1.28L344.45-32.64L355.01-33.92L353.86-27.46L353.86-27.46Q356.99-33.92 364.03-33.92L364.03-33.92L364.03-33.92Q367.74-33.92 369.76-32L369.76-32L369.76-32Q371.78-30.08 371.78-26.14L371.78-26.14L371.78-26.14Q371.78-22.21 369.18-19.71L369.18-19.71L369.18-19.71Q366.59-17.22 362.18-17.22L362.18-17.22L362.18-17.22Q360.26-17.22 359.49-17.98Z" fill="url(#editing-shiny-gradient)"></path></g></g><g filter="url(#editing-shiny2)"><g transform="translate(64.24944028258324, 99)"><path d="M30.21-33.92L30.21-33.92L30.21-33.92Q25.02-33.92 21.25-35.65L21.25-35.65L19.20-25.28L31.55-25.28L31.55-25.28Q31.55-21.89 29.86-19.74L29.86-19.74L29.86-19.74Q28.16-17.60 25.09-17.60L25.09-17.60L25.09-17.60Q21.76-17.60 18.69-18.82L18.69-18.82L18.69-18.82Q18.05-19.07 17.98-19.14L17.98-19.14L14.34 0L0.38 0L8.51-42.24L37.06-42.24L37.06-42.24Q37.06-38.34 35.23-36.13L35.23-36.13L35.23-36.13Q33.41-33.92 30.21-33.92ZM37.79-1.92L37.79-1.92L37.79-1.92Q36.29-3.58 35.62-6.21L35.62-6.21L35.62-6.21Q34.94-8.83 34.94-13.12L34.94-13.12L34.94-13.12Q34.94-17.41 36.42-21.31L36.42-21.31L36.42-21.31Q37.89-25.22 40.58-28.03L40.58-28.03L40.58-28.03Q46.08-33.92 55.17-33.92L55.17-33.92L55.17-33.92Q58.43-33.92 60.80-32.83L60.80-32.83L71.74-33.92L67.01-8.96L67.01-8.96Q66.82-8.19 66.82-6.78L66.82-6.78L66.82-6.78Q66.82-5.38 67.68-4.48L67.68-4.48L67.68-4.48Q68.54-3.58 69.82-3.46L69.82-3.46L69.82-3.46Q69.18-1.28 66.85 0L66.85 0L66.85 0Q64.51 1.28 61.89 1.28L61.89 1.28L61.89 1.28Q59.26 1.28 57.50 0.29L57.50 0.29L57.50 0.29Q55.74-0.70 55.23-2.37L55.23-2.37L55.23-2.37Q54.21-0.77 52.03 0.26L52.03 0.26L52.03 0.26Q49.86 1.28 46.94 1.28L46.94 1.28L46.94 1.28Q44.03 1.28 41.66 0.51L41.66 0.51L41.66 0.51Q39.30-0.26 37.79-1.92ZM51.30-27.90L51.30-27.90L51.30-27.90Q50.56-26.75 49.92-24.80L49.92-24.80L49.92-24.80Q49.28-22.85 48.22-17.63L48.22-17.63L48.22-17.63Q47.17-12.42 47.17-8.70L47.17-8.70L47.17-8.70Q47.17-4.99 47.74-3.90L47.74-3.90L47.74-3.90Q48.32-2.82 49.34-2.82L49.34-2.82L49.34-2.82Q51.39-2.82 52.90-4.77L52.90-4.77L52.90-4.77Q54.40-6.72 54.98-10.18L54.98-10.18L58.37-28.93L58.37-28.93Q57.02-30.08 55.46-30.08L55.46-30.08L55.46-30.08Q53.89-30.08 52.96-29.57L52.96-29.57L52.96-29.57Q52.03-29.06 51.30-27.90ZM94.34-22.46L94.34-22.46L94.34-22.46Q95.23-24.83 95.23-26.88L95.23-26.88L95.23-26.88Q95.23-30.66 92.16-30.66L92.16-30.66L92.16-30.66Q90.56-30.66 89.25-29.22L89.25-29.22L89.25-29.22Q87.94-27.78 87.94-25.98L87.94-25.98L87.94-25.98Q87.94-24.70 88.96-23.68L88.96-23.68L88.96-23.68Q90.43-22.27 94.21-19.97L94.21-19.97L94.21-19.97Q97.98-17.66 99.42-15.78L99.42-15.78L99.42-15.78Q100.86-13.89 100.86-11.30L100.86-11.30L100.86-11.30Q100.86-8.70 99.62-6.34L99.62-6.34L99.62-6.34Q98.37-3.97 96.13-2.30L96.13-2.30L96.13-2.30Q91.33 1.28 83.65 1.28L83.65 1.28L83.65 1.28Q79.49 1.28 76.29-0.90L76.29-0.90L76.29-0.90Q73.09-3.01 73.09-5.50L73.09-5.50L73.09-5.50Q73.09-8 74.91-9.47L74.91-9.47L74.91-9.47Q76.74-10.94 79.42-10.94L79.42-10.94L79.42-10.94Q82.11-10.94 83.78-9.92L83.78-9.92L83.78-9.92Q82.94-7.81 82.94-6.40L82.94-6.40L82.94-6.40Q82.94-2.18 86.53-2.18L86.53-2.18L86.53-2.18Q88.06-2.18 89.09-3.14L89.09-3.14L89.09-3.14Q90.11-4.10 90.11-5.76L90.11-5.76L90.11-5.76Q90.11-9.02 84.61-12.48L84.61-12.48L84.61-12.48Q80.13-15.42 79.10-16.58L79.10-16.58L79.10-16.58Q77.38-18.62 77.38-21.18L77.38-21.18L77.38-21.18Q77.38-23.74 78.59-26.18L78.59-26.18L78.59-26.18Q79.81-28.61 82.05-30.34L82.05-30.34L82.05-30.34Q86.72-33.92 94.85-33.92L94.85-33.92L94.85-33.92Q99.01-33.92 101.47-32.26L101.47-32.26L101.47-32.26Q103.94-30.59 103.94-27.78L103.94-27.78L103.94-27.78Q103.94-24.96 102.24-23.36L102.24-23.36L102.24-23.36Q100.54-21.76 97.47-21.76L97.47-21.76L97.47-21.76Q95.36-21.76 94.34-22.46ZM138.50-7.10L138.50-7.10L138.50-7.10Q138.50-4.29 141.38-3.46L141.38-3.46L141.38-3.46Q140.67-1.09 137.92 0.19L137.92 0.19L137.92 0.19Q135.62 1.28 133.09 1.28L133.09 1.28L133.09 1.28Q130.56 1.28 129.25 0.61L129.25 0.61L129.25 0.61Q127.94-0.06 127.23-1.15L127.23-1.15L127.23-1.15Q126.08-2.82 126.08-5.95L126.08-5.95L126.08-5.95Q126.08-7.81 127.10-12.93L127.10-12.93L128-17.79L128-17.79Q129.09-23.36 129.09-25.41L129.09-25.41L129.09-25.41Q129.09-28.99 127.10-28.99L127.10-28.99L127.10-28.99Q124.61-28.99 123.01-25.34L123.01-25.34L123.01-25.34Q122.37-23.94 121.92-21.82L121.92-21.82L117.57 0L104.70 1.28L113.73-44.80L126.59-46.08L126.08-43.52L126.08-43.52Q124.29-33.66 122.75-30.34L122.75-30.34L122.75-30.34Q126.34-33.92 132.93-33.92L132.93-33.92L132.93-33.92Q139.90-33.92 141.18-29.31L141.18-29.31L141.18-29.31Q141.63-27.84 141.63-26.56L141.63-26.56L141.63-26.56Q141.63-25.28 141.54-24.29L141.54-24.29L141.54-24.29Q141.44-23.30 141.12-21.50L141.12-21.50L140.29-16.90L138.82-9.66L138.82-9.66Q138.50-8.19 138.50-7.10ZM161.92-3.52L161.92-3.52L161.92-3.52Q159.94 1.28 153.60 1.28L153.60 1.28L153.60 1.28Q150.34 1.28 148.29-0.96L148.29-0.96L148.29-0.96Q146.56-2.94 146.56-4.93L146.56-4.93L146.56-4.93Q146.56-10.11 148.93-20.22L148.93-20.22L151.30-32.64L164.29-33.92L160.38-13.70L160.38-13.70Q159.30-8.96 159.30-7.30L159.30-7.30L159.30-7.30Q159.30-3.65 161.92-3.52ZM152.45-41.54L152.45-41.54L152.45-41.54Q152.45-44.03 154.53-45.38L154.53-45.38L154.53-45.38Q156.61-46.72 159.62-46.72L159.62-46.72L159.62-46.72Q162.62-46.72 164.45-45.38L164.45-45.38L164.45-45.38Q166.27-44.03 166.27-41.54L166.27-41.54L166.27-41.54Q166.27-39.04 164.26-37.76L164.26-37.76L164.26-37.76Q162.24-36.48 159.23-36.48L159.23-36.48L159.23-36.48Q156.22-36.48 154.34-37.76L154.34-37.76L154.34-37.76Q152.45-39.04 152.45-41.54ZM181.31 1.28L181.31 1.28L181.31 1.28Q167.23 1.28 167.23-11.97L167.23-11.97L167.23-11.97Q167.23-21.38 172.42-27.46L172.42-27.46L172.42-27.46Q177.92-33.92 187.46-33.92L187.46-33.92L187.46-33.92Q194.37-33.92 197.89-30.72L197.89-30.72L197.89-30.72Q201.41-27.52 201.41-20.80L201.41-20.80L201.41-20.80Q201.41-10.56 195.90-4.61L195.90-4.61L195.90-4.61Q190.53 1.28 181.31 1.28ZM182.98-26.56L182.98-26.56L182.98-26.56Q182.21-24.83 181.60-22.24L181.60-22.24L181.60-22.24Q180.99-19.65 180.22-15.55L180.22-15.55L180.22-15.55Q179.46-11.46 179.46-6.40L179.46-6.40L179.46-6.40Q179.46-4.74 180-3.65L180-3.65L180-3.65Q180.54-2.56 182.02-2.56L182.02-2.56L182.02-2.56Q183.49-2.56 184.42-3.26L184.42-3.26L184.42-3.26Q185.34-3.97 186.05-5.63L186.05-5.63L186.05-5.63Q187.33-8.58 188.35-14.05L188.35-14.05L188.35-14.05Q189.38-19.52 189.47-21.89L189.47-21.89L189.47-21.89Q189.57-24.26 189.57-26.02L189.57-26.02L189.57-26.02Q189.57-27.78 189.06-28.93L189.06-28.93L189.06-28.93Q188.54-30.08 187.10-30.08L187.10-30.08L187.10-30.08Q185.66-30.08 184.70-29.18L184.70-29.18L184.70-29.18Q183.74-28.29 182.98-26.56ZM232.26 1.28L232.26 1.28L232.26 1.28Q224.51 1.28 224.51-4.74L224.51-4.74L224.51-4.74Q224.58-6.40 225.09-9.22L225.09-9.22L226.24-15.10L226.24-15.10Q227.97-23.42 227.97-25.28L227.97-25.28L227.97-25.28Q227.97-28.99 225.79-28.99L225.79-28.99L225.79-28.99Q222.14-28.99 220.22-19.46L220.22-19.46L216.45 0L203.58 1.28L210.24-32.70L220.74-33.92L219.71-27.65L219.71-27.65Q222.72-33.92 231.94-33.92L231.94-33.92L231.94-33.92Q236.42-33.92 238.30-32.03L238.30-32.03L238.30-32.03Q240.19-30.14 240.19-25.92L240.19-25.92L240.19-25.92Q240.19-21.95 238.14-12.67L238.14-12.67L238.14-12.67Q237.18-8.51 237.18-6.94L237.18-6.94L237.18-6.94Q237.18-5.38 238.05-4.48L238.05-4.48L238.05-4.48Q238.91-3.58 240.19-3.46L240.19-3.46L240.19-3.46Q239.55-1.28 237.34 0L237.34 0L237.34 0Q235.14 1.28 232.26 1.28ZM264.45-22.46L264.45-22.46L264.45-22.46Q265.34-24.83 265.34-26.88L265.34-26.88L265.34-26.88Q265.34-30.66 262.27-30.66L262.27-30.66L262.27-30.66Q260.67-30.66 259.36-29.22L259.36-29.22L259.36-29.22Q258.05-27.78 258.05-25.98L258.05-25.98L258.05-25.98Q258.05-24.70 259.07-23.68L259.07-23.68L259.07-23.68Q260.54-22.27 264.32-19.97L264.32-19.97L264.32-19.97Q268.10-17.66 269.54-15.78L269.54-15.78L269.54-15.78Q270.98-13.89 270.98-11.30L270.98-11.30L270.98-11.30Q270.98-8.70 269.73-6.34L269.73-6.34L269.73-6.34Q268.48-3.97 266.24-2.30L266.24-2.30L266.24-2.30Q261.44 1.28 253.76 1.28L253.76 1.28L253.76 1.28Q249.60 1.28 246.40-0.90L246.40-0.90L246.40-0.90Q243.20-3.01 243.20-5.50L243.20-5.50L243.20-5.50Q243.20-8 245.02-9.47L245.02-9.47L245.02-9.47Q246.85-10.94 249.54-10.94L249.54-10.94L249.54-10.94Q252.22-10.94 253.89-9.92L253.89-9.92L253.89-9.92Q253.06-7.81 253.06-6.40L253.06-6.40L253.06-6.40Q253.06-2.18 256.64-2.18L256.64-2.18L256.64-2.18Q258.18-2.18 259.20-3.14L259.20-3.14L259.20-3.14Q260.22-4.10 260.22-5.76L260.22-5.76L260.22-5.76Q260.22-9.02 254.72-12.48L254.72-12.48L254.72-12.48Q250.24-15.42 249.22-16.58L249.22-16.58L249.22-16.58Q247.49-18.62 247.49-21.18L247.49-21.18L247.49-21.18Q247.49-23.74 248.70-26.18L248.70-26.18L248.70-26.18Q249.92-28.61 252.16-30.34L252.16-30.34L252.16-30.34Q256.83-33.92 264.96-33.92L264.96-33.92L264.96-33.92Q269.12-33.92 271.58-32.26L271.58-32.26L271.58-32.26Q274.05-30.59 274.05-27.78L274.05-27.78L274.05-27.78Q274.05-24.96 272.35-23.36L272.35-23.36L272.35-23.36Q270.66-21.76 267.58-21.76L267.58-21.76L267.58-21.76Q265.47-21.76 264.45-22.46ZM277.44-6.40L277.44-6.40L277.44-6.40Q277.44-8.13 278.34-12.48L278.34-12.48L281.73-29.76L277.95-29.76L278.21-31.68L278.21-31.68Q285.89-33.98 293.31-39.62L293.31-39.62L296.38-39.62L294.85-32.64L299.84-32.64L299.26-29.76L294.34-29.76L291.07-12.48L291.07-12.48Q290.24-8.51 290.24-7.17L290.24-7.17L290.24-7.17Q290.24-4.10 292.93-3.46L292.93-3.46L292.93-3.46Q292.29-1.28 289.98 0L289.98 0L289.98 0Q287.68 1.28 284.42 1.28L284.42 1.28L284.42 1.28Q281.15 1.28 279.30-0.77L279.30-0.77L279.30-0.77Q277.44-2.82 277.44-6.40ZM302.05-1.92L302.05-1.92L302.05-1.92Q300.54-3.58 299.87-6.21L299.87-6.21L299.87-6.21Q299.20-8.83 299.20-13.12L299.20-13.12L299.20-13.12Q299.20-17.41 300.67-21.31L300.67-21.31L300.67-21.31Q302.14-25.22 304.83-28.03L304.83-28.03L304.83-28.03Q310.34-33.92 319.42-33.92L319.42-33.92L319.42-33.92Q322.69-33.92 325.06-32.83L325.06-32.83L336-33.92L331.26-8.96L331.26-8.96Q331.07-8.19 331.07-6.78L331.07-6.78L331.07-6.78Q331.07-5.38 331.94-4.48L331.94-4.48L331.94-4.48Q332.80-3.58 334.08-3.46L334.08-3.46L334.08-3.46Q333.44-1.28 331.10 0L331.10 0L331.10 0Q328.77 1.28 326.14 1.28L326.14 1.28L326.14 1.28Q323.52 1.28 321.76 0.29L321.76 0.29L321.76 0.29Q320-0.70 319.49-2.37L319.49-2.37L319.49-2.37Q318.46-0.77 316.29 0.26L316.29 0.26L316.29 0.26Q314.11 1.28 311.20 1.28L311.20 1.28L311.20 1.28Q308.29 1.28 305.92 0.51L305.92 0.51L305.92 0.51Q303.55-0.26 302.05-1.92ZM315.55-27.90L315.55-27.90L315.55-27.90Q314.82-26.75 314.18-24.80L314.18-24.80L314.18-24.80Q313.54-22.85 312.48-17.63L312.48-17.63L312.48-17.63Q311.42-12.42 311.42-8.70L311.42-8.70L311.42-8.70Q311.42-4.99 312-3.90L312-3.90L312-3.90Q312.58-2.82 313.60-2.82L313.60-2.82L313.60-2.82Q315.65-2.82 317.15-4.77L317.15-4.77L317.15-4.77Q318.66-6.72 319.23-10.18L319.23-10.18L322.62-28.93L322.62-28.93Q321.28-30.08 319.71-30.08L319.71-30.08L319.71-30.08Q318.14-30.08 317.22-29.57L317.22-29.57L317.22-29.57Q316.29-29.06 315.55-27.90ZM359.49-17.98L359.49-17.98L359.49-17.98Q361.79-22.08 361.79-26.24L361.79-26.24L361.79-26.24Q361.79-28.99 359.81-28.99L359.81-28.99L359.81-28.99Q358.27-28.99 356.67-26.37L356.67-26.37L356.67-26.37Q355.01-23.74 354.50-20.35L354.50-20.35L351.17 0L337.92 1.28L344.45-32.64L355.01-33.92L353.86-27.46L353.86-27.46Q356.99-33.92 364.03-33.92L364.03-33.92L364.03-33.92Q367.74-33.92 369.76-32L369.76-32L369.76-32Q371.78-30.08 371.78-26.14L371.78-26.14L371.78-26.14Q371.78-22.21 369.18-19.71L369.18-19.71L369.18-19.71Q366.59-17.22 362.18-17.22L362.18-17.22L362.18-17.22Q360.26-17.22 359.49-17.98Z" fill="url(#editing-shiny-gradient2)"></path></g></g><style>text {
  font-size: 64px;
  font-family: Arial Black;
  dominant-baseline: central;
  text-anchor: middle;
}</style></svg>