<svg width="536.0110229492187px" height="122px" xmlns="http://www.w3.org/2000/svg" viewBox="-18.005511474609364 14 536.0110229492187 122" style="background: rgba(0, 0, 0, 0);" preserveAspectRatio="xMidYMid"><defs><linearGradient id="editing-outline-gradient" x1="-0.41354545764260087" x2="1.4135454576426008" y1="0.09326335692419985" y2="0.9067366430758002"><stop offset="0" stop-color="#ee4208"></stop><stop offset="1" stop-color="#4139ff"></stop></linearGradient><filter id="editing-outline" x="-100%" y="-100%" width="300%" height="300%"><feMorphology in="SourceGraphic" operator="dilate" radius="1" result="outline"></feMorphology><feComposite operator="out" in="outline" in2="SourceAlpha"></feComposite></filter></defs><g filter="url(#editing-outline)"><g transform="translate(61.122933477163315, 99)"><path d="M30.21-33.92L30.21-33.92L30.21-33.92Q25.02-33.92 21.25-35.65L21.25-35.65L19.20-25.28L31.55-25.28L31.55-25.28Q31.55-21.89 29.86-19.74L29.86-19.74L29.86-19.74Q28.16-17.60 25.09-17.60L25.09-17.60L25.09-17.60Q21.76-17.60 18.69-18.82L18.69-18.82L18.69-18.82Q18.05-19.07 17.98-19.14L17.98-19.14L14.34 0L0.38 0L8.51-42.24L37.06-42.24L37.06-42.24Q37.06-38.34 35.23-36.13L35.23-36.13L35.23-36.13Q33.41-33.92 30.21-33.92ZM37.79-1.92L37.79-1.92L37.79-1.92Q36.29-3.58 35.62-6.21L35.62-6.21L35.62-6.21Q34.94-8.83 34.94-13.12L34.94-13.12L34.94-13.12Q34.94-17.41 36.42-21.31L36.42-21.31L36.42-21.31Q37.89-25.22 40.58-28.03L40.58-28.03L40.58-28.03Q46.08-33.92 55.17-33.92L55.17-33.92L55.17-33.92Q58.43-33.92 60.80-32.83L60.80-32.83L71.74-33.92L67.01-8.96L67.01-8.96Q66.82-8.19 66.82-6.78L66.82-6.78L66.82-6.78Q66.82-5.38 67.68-4.48L67.68-4.48L67.68-4.48Q68.54-3.58 69.82-3.46L69.82-3.46L69.82-3.46Q69.18-1.28 66.85 0L66.85 0L66.85 0Q64.51 1.28 61.89 1.28L61.89 1.28L61.89 1.28Q59.26 1.28 57.50 0.29L57.50 0.29L57.50 0.29Q55.74-0.70 55.23-2.37L55.23-2.37L55.23-2.37Q54.21-0.77 52.03 0.26L52.03 0.26L52.03 0.26Q49.86 1.28 46.94 1.28L46.94 1.28L46.94 1.28Q44.03 1.28 41.66 0.51L41.66 0.51L41.66 0.51Q39.30-0.26 37.79-1.92ZM51.30-27.90L51.30-27.90L51.30-27.90Q50.56-26.75 49.92-24.80L49.92-24.80L49.92-24.80Q49.28-22.85 48.22-17.63L48.22-17.63L48.22-17.63Q47.17-12.42 47.17-8.70L47.17-8.70L47.17-8.70Q47.17-4.99 47.74-3.90L47.74-3.90L47.74-3.90Q48.32-2.82 49.34-2.82L49.34-2.82L49.34-2.82Q51.39-2.82 52.90-4.77L52.90-4.77L52.90-4.77Q54.40-6.72 54.98-10.18L54.98-10.18L58.37-28.93L58.37-28.93Q57.02-30.08 55.46-30.08L55.46-30.08L55.46-30.08Q53.89-30.08 52.96-29.57L52.96-29.57L52.96-29.57Q52.03-29.06 51.30-27.90ZM94.34-22.46L94.34-22.46L94.34-22.46Q95.23-24.83 95.23-26.88L95.23-26.88L95.23-26.88Q95.23-30.66 92.16-30.66L92.16-30.66L92.16-30.66Q90.56-30.66 89.25-29.22L89.25-29.22L89.25-29.22Q87.94-27.78 87.94-25.98L87.94-25.98L87.94-25.98Q87.94-24.70 88.96-23.68L88.96-23.68L88.96-23.68Q90.43-22.27 94.21-19.97L94.21-19.97L94.21-19.97Q97.98-17.66 99.42-15.78L99.42-15.78L99.42-15.78Q100.86-13.89 100.86-11.30L100.86-11.30L100.86-11.30Q100.86-8.70 99.62-6.34L99.62-6.34L99.62-6.34Q98.37-3.97 96.13-2.30L96.13-2.30L96.13-2.30Q91.33 1.28 83.65 1.28L83.65 1.28L83.65 1.28Q79.49 1.28 76.29-0.90L76.29-0.90L76.29-0.90Q73.09-3.01 73.09-5.50L73.09-5.50L73.09-5.50Q73.09-8 74.91-9.47L74.91-9.47L74.91-9.47Q76.74-10.94 79.42-10.94L79.42-10.94L79.42-10.94Q82.11-10.94 83.78-9.92L83.78-9.92L83.78-9.92Q82.94-7.81 82.94-6.40L82.94-6.40L82.94-6.40Q82.94-2.18 86.53-2.18L86.53-2.18L86.53-2.18Q88.06-2.18 89.09-3.14L89.09-3.14L89.09-3.14Q90.11-4.10 90.11-5.76L90.11-5.76L90.11-5.76Q90.11-9.02 84.61-12.48L84.61-12.48L84.61-12.48Q80.13-15.42 79.10-16.58L79.10-16.58L79.10-16.58Q77.38-18.62 77.38-21.18L77.38-21.18L77.38-21.18Q77.38-23.74 78.59-26.18L78.59-26.18L78.59-26.18Q79.81-28.61 82.05-30.34L82.05-30.34L82.05-30.34Q86.72-33.92 94.85-33.92L94.85-33.92L94.85-33.92Q99.01-33.92 101.47-32.26L101.47-32.26L101.47-32.26Q103.94-30.59 103.94-27.78L103.94-27.78L103.94-27.78Q103.94-24.96 102.24-23.36L102.24-23.36L102.24-23.36Q100.54-21.76 97.47-21.76L97.47-21.76L97.47-21.76Q95.36-21.76 94.34-22.46ZM138.50-7.10L138.50-7.10L138.50-7.10Q138.50-4.29 141.38-3.46L141.38-3.46L141.38-3.46Q140.67-1.09 137.92 0.19L137.92 0.19L137.92 0.19Q135.62 1.28 133.09 1.28L133.09 1.28L133.09 1.28Q130.56 1.28 129.25 0.61L129.25 0.61L129.25 0.61Q127.94-0.06 127.23-1.15L127.23-1.15L127.23-1.15Q126.08-2.82 126.08-5.95L126.08-5.95L126.08-5.95Q126.08-7.81 127.10-12.93L127.10-12.93L128-17.79L128-17.79Q129.09-23.36 129.09-25.41L129.09-25.41L129.09-25.41Q129.09-28.99 127.10-28.99L127.10-28.99L127.10-28.99Q124.61-28.99 123.01-25.34L123.01-25.34L123.01-25.34Q122.37-23.94 121.92-21.82L121.92-21.82L117.57 0L104.70 1.28L113.73-44.80L126.59-46.08L126.08-43.52L126.08-43.52Q124.29-33.66 122.75-30.34L122.75-30.34L122.75-30.34Q126.34-33.92 132.93-33.92L132.93-33.92L132.93-33.92Q139.90-33.92 141.18-29.31L141.18-29.31L141.18-29.31Q141.63-27.84 141.63-26.56L141.63-26.56L141.63-26.56Q141.63-25.28 141.54-24.29L141.54-24.29L141.54-24.29Q141.44-23.30 141.12-21.50L141.12-21.50L140.29-16.90L138.82-9.66L138.82-9.66Q138.50-8.19 138.50-7.10ZM161.92-3.52L161.92-3.52L161.92-3.52Q159.94 1.28 153.60 1.28L153.60 1.28L153.60 1.28Q150.34 1.28 148.29-0.96L148.29-0.96L148.29-0.96Q146.56-2.94 146.56-4.93L146.56-4.93L146.56-4.93Q146.56-10.11 148.93-20.22L148.93-20.22L151.30-32.64L164.29-33.92L160.38-13.70L160.38-13.70Q159.30-8.96 159.30-7.30L159.30-7.30L159.30-7.30Q159.30-3.65 161.92-3.52ZM152.45-41.54L152.45-41.54L152.45-41.54Q152.45-44.03 154.53-45.38L154.53-45.38L154.53-45.38Q156.61-46.72 159.62-46.72L159.62-46.72L159.62-46.72Q162.62-46.72 164.45-45.38L164.45-45.38L164.45-45.38Q166.27-44.03 166.27-41.54L166.27-41.54L166.27-41.54Q166.27-39.04 164.26-37.76L164.26-37.76L164.26-37.76Q162.24-36.48 159.23-36.48L159.23-36.48L159.23-36.48Q156.22-36.48 154.34-37.76L154.34-37.76L154.34-37.76Q152.45-39.04 152.45-41.54ZM181.31 1.28L181.31 1.28L181.31 1.28Q167.23 1.28 167.23-11.97L167.23-11.97L167.23-11.97Q167.23-21.38 172.42-27.46L172.42-27.46L172.42-27.46Q177.92-33.92 187.46-33.92L187.46-33.92L187.46-33.92Q194.37-33.92 197.89-30.72L197.89-30.72L197.89-30.72Q201.41-27.52 201.41-20.80L201.41-20.80L201.41-20.80Q201.41-10.56 195.90-4.61L195.90-4.61L195.90-4.61Q190.53 1.28 181.31 1.28ZM182.98-26.56L182.98-26.56L182.98-26.56Q182.21-24.83 181.60-22.24L181.60-22.24L181.60-22.24Q180.99-19.65 180.22-15.55L180.22-15.55L180.22-15.55Q179.46-11.46 179.46-6.40L179.46-6.40L179.46-6.40Q179.46-4.74 180-3.65L180-3.65L180-3.65Q180.54-2.56 182.02-2.56L182.02-2.56L182.02-2.56Q183.49-2.56 184.42-3.26L184.42-3.26L184.42-3.26Q185.34-3.97 186.05-5.63L186.05-5.63L186.05-5.63Q187.33-8.58 188.35-14.05L188.35-14.05L188.35-14.05Q189.38-19.52 189.47-21.89L189.47-21.89L189.47-21.89Q189.57-24.26 189.57-26.02L189.57-26.02L189.57-26.02Q189.57-27.78 189.06-28.93L189.06-28.93L189.06-28.93Q188.54-30.08 187.10-30.08L187.10-30.08L187.10-30.08Q185.66-30.08 184.70-29.18L184.70-29.18L184.70-29.18Q183.74-28.29 182.98-26.56ZM232.26 1.28L232.26 1.28L232.26 1.28Q224.51 1.28 224.51-4.74L224.51-4.74L224.51-4.74Q224.58-6.40 225.09-9.22L225.09-9.22L226.24-15.10L226.24-15.10Q227.97-23.42 227.97-25.28L227.97-25.28L227.97-25.28Q227.97-28.99 225.79-28.99L225.79-28.99L225.79-28.99Q222.14-28.99 220.22-19.46L220.22-19.46L216.45 0L203.58 1.28L210.24-32.70L220.74-33.92L219.71-27.65L219.71-27.65Q222.72-33.92 231.94-33.92L231.94-33.92L231.94-33.92Q236.42-33.92 238.30-32.03L238.30-32.03L238.30-32.03Q240.19-30.14 240.19-25.92L240.19-25.92L240.19-25.92Q240.19-21.95 238.14-12.67L238.14-12.67L238.14-12.67Q237.18-8.51 237.18-6.94L237.18-6.94L237.18-6.94Q237.18-5.38 238.05-4.48L238.05-4.48L238.05-4.48Q238.91-3.58 240.19-3.46L240.19-3.46L240.19-3.46Q239.55-1.28 237.34 0L237.34 0L237.34 0Q235.14 1.28 232.26 1.28ZM270.27-29.57L270.27-29.57L270.27-29.57Q271.23-31.49 271.23-33.28L271.23-33.28L271.23-33.28Q271.23-35.07 271.04-36.06L271.04-36.06L271.04-36.06Q270.85-37.06 270.40-37.82L270.40-37.82L270.40-37.82Q269.44-39.49 267.52-39.49L267.52-39.49L267.52-39.49Q265.15-39.49 263.23-37.76L263.23-37.76L263.23-37.76Q261.18-35.97 261.18-33.15L261.18-33.15L261.18-33.15Q261.18-31.36 262.43-29.98L262.43-29.98L262.43-29.98Q263.68-28.61 265.60-27.33L265.60-27.33L265.60-27.33Q267.52-26.05 269.70-24.77L269.70-24.77L269.70-24.77Q271.87-23.49 273.79-21.95L273.79-21.95L273.79-21.95Q278.21-18.43 278.21-13.70L278.21-13.70L278.21-13.70Q278.21-10.50 276.51-7.78L276.51-7.78L276.51-7.78Q274.82-5.06 272-3.07L272-3.07L272-3.07Q265.86 1.28 257.73 1.28L257.73 1.28L257.73 1.28Q251.14 1.28 247.74-0.86L247.74-0.86L247.74-0.86Q244.35-3.01 244.35-6.27L244.35-6.27L244.35-6.27Q244.35-12.10 248.90-13.57L248.90-13.57L248.90-13.57Q250.18-14.02 252.13-14.02L252.13-14.02L252.13-14.02Q254.08-14.02 256.32-13.18L256.32-13.18L256.32-13.18Q255.30-10.56 255.30-8.19L255.30-8.19L255.30-8.19Q255.30-3.07 258.94-3.07L258.94-3.07L258.94-3.07Q261.31-3.07 263.26-4.80L263.26-4.80L263.26-4.80Q265.22-6.53 265.22-8.48L265.22-8.48L265.22-8.48Q265.22-10.43 263.97-11.84L263.97-11.84L263.97-11.84Q262.72-13.25 260.86-14.37L260.86-14.37L260.86-14.37Q259.01-15.49 256.86-16.58L256.86-16.58L256.86-16.58Q254.72-17.66 252.86-19.20L252.86-19.20L252.86-19.20Q248.51-22.72 248.51-28.35L248.51-28.35L248.51-28.35Q248.51-32 250.30-34.85L250.30-34.85L250.30-34.85Q252.10-37.70 254.98-39.62L254.98-39.62L254.98-39.62Q260.74-43.52 267.81-43.52L267.81-43.52L267.81-43.52Q274.88-43.52 278.30-41.41L278.30-41.41L278.30-41.41Q281.73-39.30 281.73-35.71L281.73-35.71L281.73-35.71Q281.73-32.58 279.30-30.59L279.30-30.59L279.30-30.59Q277.18-28.93 274.62-28.93L274.62-28.93L274.62-28.93Q272.06-28.93 270.27-29.57ZM284.10-6.40L284.10-6.40L284.10-6.40Q284.10-8.13 284.99-12.48L284.99-12.48L288.38-29.76L284.61-29.76L284.86-31.68L284.86-31.68Q292.54-33.98 299.97-39.62L299.97-39.62L303.04-39.62L301.50-32.64L306.50-32.64L305.92-29.76L300.99-29.76L297.73-12.48L297.73-12.48Q296.90-8.51 296.90-7.17L296.90-7.17L296.90-7.17Q296.90-4.10 299.58-3.46L299.58-3.46L299.58-3.46Q298.94-1.28 296.64 0L296.64 0L296.64 0Q294.34 1.28 291.07 1.28L291.07 1.28L291.07 1.28Q287.81 1.28 285.95-0.77L285.95-0.77L285.95-0.77Q284.10-2.82 284.10-6.40ZM308.70-1.92L308.70-1.92L308.70-1.92Q307.20-3.58 306.53-6.21L306.53-6.21L306.53-6.21Q305.86-8.83 305.86-13.12L305.86-13.12L305.86-13.12Q305.86-17.41 307.33-21.31L307.33-21.31L307.33-21.31Q308.80-25.22 311.49-28.03L311.49-28.03L311.49-28.03Q316.99-33.92 326.08-33.92L326.08-33.92L326.08-33.92Q329.34-33.92 331.71-32.83L331.71-32.83L342.66-33.92L337.92-8.96L337.92-8.96Q337.73-8.19 337.73-6.78L337.73-6.78L337.73-6.78Q337.73-5.38 338.59-4.48L338.59-4.48L338.59-4.48Q339.46-3.58 340.74-3.46L340.74-3.46L340.74-3.46Q340.10-1.28 337.76 0L337.76 0L337.76 0Q335.42 1.28 332.80 1.28L332.80 1.28L332.80 1.28Q330.18 1.28 328.42 0.29L328.42 0.29L328.42 0.29Q326.66-0.70 326.14-2.37L326.14-2.37L326.14-2.37Q325.12-0.77 322.94 0.26L322.94 0.26L322.94 0.26Q320.77 1.28 317.86 1.28L317.86 1.28L317.86 1.28Q314.94 1.28 312.58 0.51L312.58 0.51L312.58 0.51Q310.21-0.26 308.70-1.92ZM322.21-27.90L322.21-27.90L322.21-27.90Q321.47-26.75 320.83-24.80L320.83-24.80L320.83-24.80Q320.19-22.85 319.14-17.63L319.14-17.63L319.14-17.63Q318.08-12.42 318.08-8.70L318.08-8.70L318.08-8.70Q318.08-4.99 318.66-3.90L318.66-3.90L318.66-3.90Q319.23-2.82 320.26-2.82L320.26-2.82L320.26-2.82Q322.30-2.82 323.81-4.77L323.81-4.77L323.81-4.77Q325.31-6.72 325.89-10.18L325.89-10.18L329.28-28.93L329.28-28.93Q327.94-30.08 326.37-30.08L326.37-30.08L326.37-30.08Q324.80-30.08 323.87-29.57L323.87-29.57L323.87-29.57Q322.94-29.06 322.21-27.90ZM366.14-17.98L366.14-17.98L366.14-17.98Q368.45-22.08 368.45-26.24L368.45-26.24L368.45-26.24Q368.45-28.99 366.46-28.99L366.46-28.99L366.46-28.99Q364.93-28.99 363.33-26.37L363.33-26.37L363.33-26.37Q361.66-23.74 361.15-20.35L361.15-20.35L357.82 0L344.58 1.28L351.10-32.64L361.66-33.92L360.51-27.46L360.51-27.46Q363.65-33.92 370.69-33.92L370.69-33.92L370.69-33.92Q374.40-33.92 376.42-32L376.42-32L376.42-32Q378.43-30.08 378.43-26.14L378.43-26.14L378.43-26.14Q378.43-22.21 375.84-19.71L375.84-19.71L375.84-19.71Q373.25-17.22 368.83-17.22L368.83-17.22L368.83-17.22Q366.91-17.22 366.14-17.98Z" fill="url(#editing-outline-gradient)"></path></g>
</g><style>text {
  font-size: 64px;
  font-family: Arial Black;
  dominant-baseline: central;
  text-anchor: middle;
}</style></svg>