<svg width="329.5009765625px" height="84.4219741821289px" xmlns="http://www.w3.org/2000/svg"
  viewBox="85.24951171875 32.78901290893555 329.5009765625 84.4219741821289" style="background: rgba(0, 0, 0, 0);"
  preserveAspectRatio="xMidYMid">
  <defs>
    <linearGradient id="editing-shiny-gradient" x1="0.04322727117869957" x2="0.9567727288213004" y1="0.2966316784620999"
      y2="0.7033683215379001" gradientUnits="objectBoundingBox">
      <stop offset="0.0" stop-color="#ffb200"></stop>
      <stop offset="0.5" stop-color="#e10057"></stop>
      <stop offset="1.0" stop-color="#5A1A80"></stop>
    </linearGradient>
    <linearGradient id="editing-shiny-gradient2" x1="0" x2="0" y1="0" y2="1">
      <stop offset="0.2" stop-color="#fff" stop-opacity="0.8"></stop>
      <stop offset="0.8" stop-color="#fff" stop-opacity="0"></stop>
    </linearGradient>
    <filter id="editing-shiny2" x="-100%" y="-100%" width="300%" height="300%">
      <feMorphology operator="erode" radius="2"></feMorphology>
    </filter>
    <filter id="editing-shiny" x="-100%" y="-100%" width="300%" height="300%">
      <feFlood flood-color="#fff" result="flood"></feFlood>
      <feConvolveMatrix in="SourceGraphic" result="conv" order="8,8" divisor="1"
        kernelMatrix="0 0 0 0 0 0 0 0 0 0 0 1 1 0 0 0 0 0 0 1 1 0 0 0 0 0 1 0 0 1 0 0 0 0 1 0 0 1 0 0 0 1 0 0 0 0 1 0 0 1 1 0 0 1 1 0 0 0 0 1 1 0 0 0 ">
      </feConvolveMatrix>
      <feOffset dx="0" dy="4" in="conv" result="offset"></feOffset>
      <feComposite operator="in" in="flood" in2="offset" result="comp"></feComposite>
      <feGaussianBlur in="offset" stdDeviation="3" result="shadow"></feGaussianBlur>
      <feColorMatrix in="shadow" type="matrix" values="0.7 0 0 0 0  0 0.7 0 0 0  0 0 0.7 0 0  0 0 0 0.3 0"
        result="dark-shadow"></feColorMatrix>
      <feOffset dx="0" dy="4" in="dark-shadow" result="offset-shadow"></feOffset>
      <feOffset dx="0" dy="2" in="conv" result="offset-2"></feOffset>
      <feComposite operator="out" in="offset" in2="offset-2" result="edge-diff"></feComposite>
      <feGaussianBlur in="edge-diff" stdDeviation="1" result="edge-blur"></feGaussianBlur>
      <feColorMatrix in="edge-blur" result="edge-shadow" type="matrix"
        values="0 0 0 0 0  0 0 0 0 0  0 0 0 0 0  0 0 0 0.5 0"></feColorMatrix>
      <feComposite operator="in" in="edge-shadow" in2="offset" result="edge-shadow-in"></feComposite>
      <feOffset dx="0" dy="1" in="edge-shadow-in" result="edge-shadow-final"></feOffset>
      <feMerge result="out">
        <feMergeNode in="offset-shadow"></feMergeNode>
        <feMergeNode in="comp"></feMergeNode>
        <feMergeNode in="edge-shadow-final"></feMergeNode>
        <feMergeNode in="SourceGraphic"></feMergeNode>
      </feMerge>
    </filter>
  </defs>
  <g filter="url(#editing-shiny)">
    <g transform="translate(71.66499814391136, 99)">
      <path
        d="M30.21-33.92L30.21-33.92L30.21-33.92Q25.02-33.92 21.25-35.65L21.25-35.65L19.20-25.28L31.55-25.28L31.55-25.28Q31.55-21.89 29.86-19.74L29.86-19.74L29.86-19.74Q28.16-17.60 25.09-17.60L25.09-17.60L25.09-17.60Q21.76-17.60 18.69-18.82L18.69-18.82L18.69-18.82Q18.05-19.07 17.98-19.14L17.98-19.14L14.34 0L0.38 0L8.51-42.24L37.06-42.24L37.06-42.24Q37.06-38.34 35.23-36.13L35.23-36.13L35.23-36.13Q33.41-33.92 30.21-33.92ZM37.79-1.92L37.79-1.92L37.79-1.92Q36.29-3.58 35.62-6.21L35.62-6.21L35.62-6.21Q34.94-8.83 34.94-13.12L34.94-13.12L34.94-13.12Q34.94-17.41 36.42-21.31L36.42-21.31L36.42-21.31Q37.89-25.22 40.58-28.03L40.58-28.03L40.58-28.03Q46.08-33.92 55.17-33.92L55.17-33.92L55.17-33.92Q58.43-33.92 60.80-32.83L60.80-32.83L71.74-33.92L67.01-8.96L67.01-8.96Q66.82-8.19 66.82-6.78L66.82-6.78L66.82-6.78Q66.82-5.38 67.68-4.48L67.68-4.48L67.68-4.48Q68.54-3.58 69.82-3.46L69.82-3.46L69.82-3.46Q69.18-1.28 66.85 0L66.85 0L66.85 0Q64.51 1.28 61.89 1.28L61.89 1.28L61.89 1.28Q59.26 1.28 57.50 0.29L57.50 0.29L57.50 0.29Q55.74-0.70 55.23-2.37L55.23-2.37L55.23-2.37Q54.21-0.77 52.03 0.26L52.03 0.26L52.03 0.26Q49.86 1.28 46.94 1.28L46.94 1.28L46.94 1.28Q44.03 1.28 41.66 0.51L41.66 0.51L41.66 0.51Q39.30-0.26 37.79-1.92ZM51.30-27.90L51.30-27.90L51.30-27.90Q50.56-26.75 49.92-24.80L49.92-24.80L49.92-24.80Q49.28-22.85 48.22-17.63L48.22-17.63L48.22-17.63Q47.17-12.42 47.17-8.70L47.17-8.70L47.17-8.70Q47.17-4.99 47.74-3.90L47.74-3.90L47.74-3.90Q48.32-2.82 49.34-2.82L49.34-2.82L49.34-2.82Q51.39-2.82 52.90-4.77L52.90-4.77L52.90-4.77Q54.40-6.72 54.98-10.18L54.98-10.18L58.37-28.93L58.37-28.93Q57.02-30.08 55.46-30.08L55.46-30.08L55.46-30.08Q53.89-30.08 52.96-29.57L52.96-29.57L52.96-29.57Q52.03-29.06 51.30-27.90ZM94.34-22.46L94.34-22.46L94.34-22.46Q95.23-24.83 95.23-26.88L95.23-26.88L95.23-26.88Q95.23-30.66 92.16-30.66L92.16-30.66L92.16-30.66Q90.56-30.66 89.25-29.22L89.25-29.22L89.25-29.22Q87.94-27.78 87.94-25.98L87.94-25.98L87.94-25.98Q87.94-24.70 88.96-23.68L88.96-23.68L88.96-23.68Q90.43-22.27 94.21-19.97L94.21-19.97L94.21-19.97Q97.98-17.66 99.42-15.78L99.42-15.78L99.42-15.78Q100.86-13.89 100.86-11.30L100.86-11.30L100.86-11.30Q100.86-8.70 99.62-6.34L99.62-6.34L99.62-6.34Q98.37-3.97 96.13-2.30L96.13-2.30L96.13-2.30Q91.33 1.28 83.65 1.28L83.65 1.28L83.65 1.28Q79.49 1.28 76.29-0.90L76.29-0.90L76.29-0.90Q73.09-3.01 73.09-5.50L73.09-5.50L73.09-5.50Q73.09-8 74.91-9.47L74.91-9.47L74.91-9.47Q76.74-10.94 79.42-10.94L79.42-10.94L79.42-10.94Q82.11-10.94 83.78-9.92L83.78-9.92L83.78-9.92Q82.94-7.81 82.94-6.40L82.94-6.40L82.94-6.40Q82.94-2.18 86.53-2.18L86.53-2.18L86.53-2.18Q88.06-2.18 89.09-3.14L89.09-3.14L89.09-3.14Q90.11-4.10 90.11-5.76L90.11-5.76L90.11-5.76Q90.11-9.02 84.61-12.48L84.61-12.48L84.61-12.48Q80.13-15.42 79.10-16.58L79.10-16.58L79.10-16.58Q77.38-18.62 77.38-21.18L77.38-21.18L77.38-21.18Q77.38-23.74 78.59-26.18L78.59-26.18L78.59-26.18Q79.81-28.61 82.05-30.34L82.05-30.34L82.05-30.34Q86.72-33.92 94.85-33.92L94.85-33.92L94.85-33.92Q99.01-33.92 101.47-32.26L101.47-32.26L101.47-32.26Q103.94-30.59 103.94-27.78L103.94-27.78L103.94-27.78Q103.94-24.96 102.24-23.36L102.24-23.36L102.24-23.36Q100.54-21.76 97.47-21.76L97.47-21.76L97.47-21.76Q95.36-21.76 94.34-22.46ZM138.50-7.10L138.50-7.10L138.50-7.10Q138.50-4.29 141.38-3.46L141.38-3.46L141.38-3.46Q140.67-1.09 137.92 0.19L137.92 0.19L137.92 0.19Q135.62 1.28 133.09 1.28L133.09 1.28L133.09 1.28Q130.56 1.28 129.25 0.61L129.25 0.61L129.25 0.61Q127.94-0.06 127.23-1.15L127.23-1.15L127.23-1.15Q126.08-2.82 126.08-5.95L126.08-5.95L126.08-5.95Q126.08-7.81 127.10-12.93L127.10-12.93L128-17.79L128-17.79Q129.09-23.36 129.09-25.41L129.09-25.41L129.09-25.41Q129.09-28.99 127.10-28.99L127.10-28.99L127.10-28.99Q124.61-28.99 123.01-25.34L123.01-25.34L123.01-25.34Q122.37-23.94 121.92-21.82L121.92-21.82L117.57 0L104.70 1.28L113.73-44.80L126.59-46.08L126.08-43.52L126.08-43.52Q124.29-33.66 122.75-30.34L122.75-30.34L122.75-30.34Q126.34-33.92 132.93-33.92L132.93-33.92L132.93-33.92Q139.90-33.92 141.18-29.31L141.18-29.31L141.18-29.31Q141.63-27.84 141.63-26.56L141.63-26.56L141.63-26.56Q141.63-25.28 141.54-24.29L141.54-24.29L141.54-24.29Q141.44-23.30 141.12-21.50L141.12-21.50L140.29-16.90L138.82-9.66L138.82-9.66Q138.50-8.19 138.50-7.10ZM161.92-3.52L161.92-3.52L161.92-3.52Q159.94 1.28 153.60 1.28L153.60 1.28L153.60 1.28Q150.34 1.28 148.29-0.96L148.29-0.96L148.29-0.96Q146.56-2.94 146.56-4.93L146.56-4.93L146.56-4.93Q146.56-10.11 148.93-20.22L148.93-20.22L151.30-32.64L164.29-33.92L160.38-13.70L160.38-13.70Q159.30-8.96 159.30-7.30L159.30-7.30L159.30-7.30Q159.30-3.65 161.92-3.52ZM152.45-41.54L152.45-41.54L152.45-41.54Q152.45-44.03 154.53-45.38L154.53-45.38L154.53-45.38Q156.61-46.72 159.62-46.72L159.62-46.72L159.62-46.72Q162.62-46.72 164.45-45.38L164.45-45.38L164.45-45.38Q166.27-44.03 166.27-41.54L166.27-41.54L166.27-41.54Q166.27-39.04 164.26-37.76L164.26-37.76L164.26-37.76Q162.24-36.48 159.23-36.48L159.23-36.48L159.23-36.48Q156.22-36.48 154.34-37.76L154.34-37.76L154.34-37.76Q152.45-39.04 152.45-41.54ZM181.31 1.28L181.31 1.28L181.31 1.28Q167.23 1.28 167.23-11.97L167.23-11.97L167.23-11.97Q167.23-21.38 172.42-27.46L172.42-27.46L172.42-27.46Q177.92-33.92 187.46-33.92L187.46-33.92L187.46-33.92Q194.37-33.92 197.89-30.72L197.89-30.72L197.89-30.72Q201.41-27.52 201.41-20.80L201.41-20.80L201.41-20.80Q201.41-10.56 195.90-4.61L195.90-4.61L195.90-4.61Q190.53 1.28 181.31 1.28ZM182.98-26.56L182.98-26.56L182.98-26.56Q182.21-24.83 181.60-22.24L181.60-22.24L181.60-22.24Q180.99-19.65 180.22-15.55L180.22-15.55L180.22-15.55Q179.46-11.46 179.46-6.40L179.46-6.40L179.46-6.40Q179.46-4.74 180-3.65L180-3.65L180-3.65Q180.54-2.56 182.02-2.56L182.02-2.56L182.02-2.56Q183.49-2.56 184.42-3.26L184.42-3.26L184.42-3.26Q185.34-3.97 186.05-5.63L186.05-5.63L186.05-5.63Q187.33-8.58 188.35-14.05L188.35-14.05L188.35-14.05Q189.38-19.52 189.47-21.89L189.47-21.89L189.47-21.89Q189.57-24.26 189.57-26.02L189.57-26.02L189.57-26.02Q189.57-27.78 189.06-28.93L189.06-28.93L189.06-28.93Q188.54-30.08 187.10-30.08L187.10-30.08L187.10-30.08Q185.66-30.08 184.70-29.18L184.70-29.18L184.70-29.18Q183.74-28.29 182.98-26.56ZM232.26 1.28L232.26 1.28L232.26 1.28Q224.51 1.28 224.51-4.74L224.51-4.74L224.51-4.74Q224.58-6.40 225.09-9.22L225.09-9.22L226.24-15.10L226.24-15.10Q227.97-23.42 227.97-25.28L227.97-25.28L227.97-25.28Q227.97-28.99 225.79-28.99L225.79-28.99L225.79-28.99Q222.14-28.99 220.22-19.46L220.22-19.46L216.45 0L203.58 1.28L210.24-32.70L220.74-33.92L219.71-27.65L219.71-27.65Q222.72-33.92 231.94-33.92L231.94-33.92L231.94-33.92Q236.42-33.92 238.30-32.03L238.30-32.03L238.30-32.03Q240.19-30.14 240.19-25.92L240.19-25.92L240.19-25.92Q240.19-21.95 238.14-12.67L238.14-12.67L238.14-12.67Q237.18-8.51 237.18-6.94L237.18-6.94L237.18-6.94Q237.18-5.38 238.05-4.48L238.05-4.48L238.05-4.48Q238.91-3.58 240.19-3.46L240.19-3.46L240.19-3.46Q239.55-1.28 237.34 0L237.34 0L237.34 0Q235.14 1.28 232.26 1.28ZM259.26 1.28L259.26 1.28L259.26 1.28Q245.18 1.28 245.18-11.97L245.18-11.97L245.18-11.97Q245.18-21.38 250.37-27.46L250.37-27.46L250.37-27.46Q255.87-33.92 265.41-33.92L265.41-33.92L265.41-33.92Q272.32-33.92 275.84-30.72L275.84-30.72L275.84-30.72Q279.36-27.52 279.36-20.80L279.36-20.80L279.36-20.80Q279.36-10.56 273.86-4.61L273.86-4.61L273.86-4.61Q268.48 1.28 259.26 1.28ZM260.93-26.56L260.93-26.56L260.93-26.56Q260.16-24.83 259.55-22.24L259.55-22.24L259.55-22.24Q258.94-19.65 258.18-15.55L258.18-15.55L258.18-15.55Q257.41-11.46 257.41-6.40L257.41-6.40L257.41-6.40Q257.41-4.74 257.95-3.65L257.95-3.65L257.95-3.65Q258.50-2.56 259.97-2.56L259.97-2.56L259.97-2.56Q261.44-2.56 262.37-3.26L262.37-3.26L262.37-3.26Q263.30-3.97 264-5.63L264-5.63L264-5.63Q265.28-8.58 266.30-14.05L266.30-14.05L266.30-14.05Q267.33-19.52 267.42-21.89L267.42-21.89L267.42-21.89Q267.52-24.26 267.52-26.02L267.52-26.02L267.52-26.02Q267.52-27.78 267.01-28.93L267.01-28.93L267.01-28.93Q266.50-30.08 265.06-30.08L265.06-30.08L265.06-30.08Q263.62-30.08 262.66-29.18L262.66-29.18L262.66-29.18Q261.70-28.29 260.93-26.56ZM306.37-31.55L306.37-31.55L306.37-31.55Q308.48-33.92 312.13-33.92L312.13-33.92L312.13-33.92Q314.37-33.92 316.10-32.70L316.10-32.70L316.10-32.70Q317.82-31.49 317.82-29.22L317.82-29.22L317.82-29.22Q317.82-26.94 317.12-24.51L317.12-24.51L317.12-24.51Q316.42-22.08 315.33-19.58L315.33-19.58L315.33-19.58Q313.15-14.72 310.14-10.69L310.14-10.69L310.14-10.69Q305.92-4.86 301.86-1.79L301.86-1.79L301.86-1.79Q297.79 1.28 293.38 1.28L293.38 1.28L293.38 1.28Q289.79 1.28 287.62 0.45L287.62 0.45L287.62 0.45Q287.23-12.99 286.75-17.79L286.75-17.79L286.75-17.79Q286.27-22.59 285.89-25.22L285.89-25.22L285.89-25.22Q285.25-30.34 283.33-31.55L283.33-31.55L283.33-31.55Q284.80-32.83 286.24-33.38L286.24-33.38L286.24-33.38Q287.68-33.92 290.66-33.92L290.66-33.92L290.66-33.92Q293.63-33.92 295.74-31.58L295.74-31.58L295.74-31.58Q297.86-29.25 298.27-25.12L298.27-25.12L298.27-25.12Q298.69-20.99 298.69-16L298.69-16L298.69-16Q298.69-11.01 298.30-4.99L298.30-4.99L298.30-4.99Q300.29-6.40 302.40-10.69L302.40-10.69L302.40-10.69Q305.28-16.64 306.30-23.81L306.30-23.81L306.30-23.81Q306.62-25.98 306.62-28.29L306.62-28.29L306.62-28.29Q306.62-30.59 306.37-31.55ZM322.34-1.92L322.34-1.92L322.34-1.92Q320.83-3.58 320.16-6.21L320.16-6.21L320.16-6.21Q319.49-8.83 319.49-13.12L319.49-13.12L319.49-13.12Q319.49-17.41 320.96-21.31L320.96-21.31L320.96-21.31Q322.43-25.22 325.12-28.03L325.12-28.03L325.12-28.03Q330.62-33.92 339.71-33.92L339.71-33.92L339.71-33.92Q342.98-33.92 345.34-32.83L345.34-32.83L356.29-33.92L351.55-8.96L351.55-8.96Q351.36-8.19 351.36-6.78L351.36-6.78L351.36-6.78Q351.36-5.38 352.22-4.48L352.22-4.48L352.22-4.48Q353.09-3.58 354.37-3.46L354.37-3.46L354.37-3.46Q353.73-1.28 351.39 0L351.39 0L351.39 0Q349.06 1.28 346.43 1.28L346.43 1.28L346.43 1.28Q343.81 1.28 342.05 0.29L342.05 0.29L342.05 0.29Q340.29-0.70 339.78-2.37L339.78-2.37L339.78-2.37Q338.75-0.77 336.58 0.26L336.58 0.26L336.58 0.26Q334.40 1.28 331.49 1.28L331.49 1.28L331.49 1.28Q328.58 1.28 326.21 0.51L326.21 0.51L326.21 0.51Q323.84-0.26 322.34-1.92ZM335.84-27.90L335.84-27.90L335.84-27.90Q335.10-26.75 334.46-24.80L334.46-24.80L334.46-24.80Q333.82-22.85 332.77-17.63L332.77-17.63L332.77-17.63Q331.71-12.42 331.71-8.70L331.71-8.70L331.71-8.70Q331.71-4.99 332.29-3.90L332.29-3.90L332.29-3.90Q332.86-2.82 333.89-2.82L333.89-2.82L333.89-2.82Q335.94-2.82 337.44-4.77L337.44-4.77L337.44-4.77Q338.94-6.72 339.52-10.18L339.52-10.18L342.91-28.93L342.91-28.93Q341.57-30.08 340-30.08L340-30.08L340-30.08Q338.43-30.08 337.50-29.57L337.50-29.57L337.50-29.57Q336.58-29.06 335.84-27.90Z"
        fill="url(#editing-shiny-gradient)"></path>
    </g>
  </g>
  <g filter="url(#editing-shiny2)">
    <g transform="translate(71.66499814391136, 99)">
      <path
        d="M30.21-33.92L30.21-33.92L30.21-33.92Q25.02-33.92 21.25-35.65L21.25-35.65L19.20-25.28L31.55-25.28L31.55-25.28Q31.55-21.89 29.86-19.74L29.86-19.74L29.86-19.74Q28.16-17.60 25.09-17.60L25.09-17.60L25.09-17.60Q21.76-17.60 18.69-18.82L18.69-18.82L18.69-18.82Q18.05-19.07 17.98-19.14L17.98-19.14L14.34 0L0.38 0L8.51-42.24L37.06-42.24L37.06-42.24Q37.06-38.34 35.23-36.13L35.23-36.13L35.23-36.13Q33.41-33.92 30.21-33.92ZM37.79-1.92L37.79-1.92L37.79-1.92Q36.29-3.58 35.62-6.21L35.62-6.21L35.62-6.21Q34.94-8.83 34.94-13.12L34.94-13.12L34.94-13.12Q34.94-17.41 36.42-21.31L36.42-21.31L36.42-21.31Q37.89-25.22 40.58-28.03L40.58-28.03L40.58-28.03Q46.08-33.92 55.17-33.92L55.17-33.92L55.17-33.92Q58.43-33.92 60.80-32.83L60.80-32.83L71.74-33.92L67.01-8.96L67.01-8.96Q66.82-8.19 66.82-6.78L66.82-6.78L66.82-6.78Q66.82-5.38 67.68-4.48L67.68-4.48L67.68-4.48Q68.54-3.58 69.82-3.46L69.82-3.46L69.82-3.46Q69.18-1.28 66.85 0L66.85 0L66.85 0Q64.51 1.28 61.89 1.28L61.89 1.28L61.89 1.28Q59.26 1.28 57.50 0.29L57.50 0.29L57.50 0.29Q55.74-0.70 55.23-2.37L55.23-2.37L55.23-2.37Q54.21-0.77 52.03 0.26L52.03 0.26L52.03 0.26Q49.86 1.28 46.94 1.28L46.94 1.28L46.94 1.28Q44.03 1.28 41.66 0.51L41.66 0.51L41.66 0.51Q39.30-0.26 37.79-1.92ZM51.30-27.90L51.30-27.90L51.30-27.90Q50.56-26.75 49.92-24.80L49.92-24.80L49.92-24.80Q49.28-22.85 48.22-17.63L48.22-17.63L48.22-17.63Q47.17-12.42 47.17-8.70L47.17-8.70L47.17-8.70Q47.17-4.99 47.74-3.90L47.74-3.90L47.74-3.90Q48.32-2.82 49.34-2.82L49.34-2.82L49.34-2.82Q51.39-2.82 52.90-4.77L52.90-4.77L52.90-4.77Q54.40-6.72 54.98-10.18L54.98-10.18L58.37-28.93L58.37-28.93Q57.02-30.08 55.46-30.08L55.46-30.08L55.46-30.08Q53.89-30.08 52.96-29.57L52.96-29.57L52.96-29.57Q52.03-29.06 51.30-27.90ZM94.34-22.46L94.34-22.46L94.34-22.46Q95.23-24.83 95.23-26.88L95.23-26.88L95.23-26.88Q95.23-30.66 92.16-30.66L92.16-30.66L92.16-30.66Q90.56-30.66 89.25-29.22L89.25-29.22L89.25-29.22Q87.94-27.78 87.94-25.98L87.94-25.98L87.94-25.98Q87.94-24.70 88.96-23.68L88.96-23.68L88.96-23.68Q90.43-22.27 94.21-19.97L94.21-19.97L94.21-19.97Q97.98-17.66 99.42-15.78L99.42-15.78L99.42-15.78Q100.86-13.89 100.86-11.30L100.86-11.30L100.86-11.30Q100.86-8.70 99.62-6.34L99.62-6.34L99.62-6.34Q98.37-3.97 96.13-2.30L96.13-2.30L96.13-2.30Q91.33 1.28 83.65 1.28L83.65 1.28L83.65 1.28Q79.49 1.28 76.29-0.90L76.29-0.90L76.29-0.90Q73.09-3.01 73.09-5.50L73.09-5.50L73.09-5.50Q73.09-8 74.91-9.47L74.91-9.47L74.91-9.47Q76.74-10.94 79.42-10.94L79.42-10.94L79.42-10.94Q82.11-10.94 83.78-9.92L83.78-9.92L83.78-9.92Q82.94-7.81 82.94-6.40L82.94-6.40L82.94-6.40Q82.94-2.18 86.53-2.18L86.53-2.18L86.53-2.18Q88.06-2.18 89.09-3.14L89.09-3.14L89.09-3.14Q90.11-4.10 90.11-5.76L90.11-5.76L90.11-5.76Q90.11-9.02 84.61-12.48L84.61-12.48L84.61-12.48Q80.13-15.42 79.10-16.58L79.10-16.58L79.10-16.58Q77.38-18.62 77.38-21.18L77.38-21.18L77.38-21.18Q77.38-23.74 78.59-26.18L78.59-26.18L78.59-26.18Q79.81-28.61 82.05-30.34L82.05-30.34L82.05-30.34Q86.72-33.92 94.85-33.92L94.85-33.92L94.85-33.92Q99.01-33.92 101.47-32.26L101.47-32.26L101.47-32.26Q103.94-30.59 103.94-27.78L103.94-27.78L103.94-27.78Q103.94-24.96 102.24-23.36L102.24-23.36L102.24-23.36Q100.54-21.76 97.47-21.76L97.47-21.76L97.47-21.76Q95.36-21.76 94.34-22.46ZM138.50-7.10L138.50-7.10L138.50-7.10Q138.50-4.29 141.38-3.46L141.38-3.46L141.38-3.46Q140.67-1.09 137.92 0.19L137.92 0.19L137.92 0.19Q135.62 1.28 133.09 1.28L133.09 1.28L133.09 1.28Q130.56 1.28 129.25 0.61L129.25 0.61L129.25 0.61Q127.94-0.06 127.23-1.15L127.23-1.15L127.23-1.15Q126.08-2.82 126.08-5.95L126.08-5.95L126.08-5.95Q126.08-7.81 127.10-12.93L127.10-12.93L128-17.79L128-17.79Q129.09-23.36 129.09-25.41L129.09-25.41L129.09-25.41Q129.09-28.99 127.10-28.99L127.10-28.99L127.10-28.99Q124.61-28.99 123.01-25.34L123.01-25.34L123.01-25.34Q122.37-23.94 121.92-21.82L121.92-21.82L117.57 0L104.70 1.28L113.73-44.80L126.59-46.08L126.08-43.52L126.08-43.52Q124.29-33.66 122.75-30.34L122.75-30.34L122.75-30.34Q126.34-33.92 132.93-33.92L132.93-33.92L132.93-33.92Q139.90-33.92 141.18-29.31L141.18-29.31L141.18-29.31Q141.63-27.84 141.63-26.56L141.63-26.56L141.63-26.56Q141.63-25.28 141.54-24.29L141.54-24.29L141.54-24.29Q141.44-23.30 141.12-21.50L141.12-21.50L140.29-16.90L138.82-9.66L138.82-9.66Q138.50-8.19 138.50-7.10ZM161.92-3.52L161.92-3.52L161.92-3.52Q159.94 1.28 153.60 1.28L153.60 1.28L153.60 1.28Q150.34 1.28 148.29-0.96L148.29-0.96L148.29-0.96Q146.56-2.94 146.56-4.93L146.56-4.93L146.56-4.93Q146.56-10.11 148.93-20.22L148.93-20.22L151.30-32.64L164.29-33.92L160.38-13.70L160.38-13.70Q159.30-8.96 159.30-7.30L159.30-7.30L159.30-7.30Q159.30-3.65 161.92-3.52ZM152.45-41.54L152.45-41.54L152.45-41.54Q152.45-44.03 154.53-45.38L154.53-45.38L154.53-45.38Q156.61-46.72 159.62-46.72L159.62-46.72L159.62-46.72Q162.62-46.72 164.45-45.38L164.45-45.38L164.45-45.38Q166.27-44.03 166.27-41.54L166.27-41.54L166.27-41.54Q166.27-39.04 164.26-37.76L164.26-37.76L164.26-37.76Q162.24-36.48 159.23-36.48L159.23-36.48L159.23-36.48Q156.22-36.48 154.34-37.76L154.34-37.76L154.34-37.76Q152.45-39.04 152.45-41.54ZM181.31 1.28L181.31 1.28L181.31 1.28Q167.23 1.28 167.23-11.97L167.23-11.97L167.23-11.97Q167.23-21.38 172.42-27.46L172.42-27.46L172.42-27.46Q177.92-33.92 187.46-33.92L187.46-33.92L187.46-33.92Q194.37-33.92 197.89-30.72L197.89-30.72L197.89-30.72Q201.41-27.52 201.41-20.80L201.41-20.80L201.41-20.80Q201.41-10.56 195.90-4.61L195.90-4.61L195.90-4.61Q190.53 1.28 181.31 1.28ZM182.98-26.56L182.98-26.56L182.98-26.56Q182.21-24.83 181.60-22.24L181.60-22.24L181.60-22.24Q180.99-19.65 180.22-15.55L180.22-15.55L180.22-15.55Q179.46-11.46 179.46-6.40L179.46-6.40L179.46-6.40Q179.46-4.74 180-3.65L180-3.65L180-3.65Q180.54-2.56 182.02-2.56L182.02-2.56L182.02-2.56Q183.49-2.56 184.42-3.26L184.42-3.26L184.42-3.26Q185.34-3.97 186.05-5.63L186.05-5.63L186.05-5.63Q187.33-8.58 188.35-14.05L188.35-14.05L188.35-14.05Q189.38-19.52 189.47-21.89L189.47-21.89L189.47-21.89Q189.57-24.26 189.57-26.02L189.57-26.02L189.57-26.02Q189.57-27.78 189.06-28.93L189.06-28.93L189.06-28.93Q188.54-30.08 187.10-30.08L187.10-30.08L187.10-30.08Q185.66-30.08 184.70-29.18L184.70-29.18L184.70-29.18Q183.74-28.29 182.98-26.56ZM232.26 1.28L232.26 1.28L232.26 1.28Q224.51 1.28 224.51-4.74L224.51-4.74L224.51-4.74Q224.58-6.40 225.09-9.22L225.09-9.22L226.24-15.10L226.24-15.10Q227.97-23.42 227.97-25.28L227.97-25.28L227.97-25.28Q227.97-28.99 225.79-28.99L225.79-28.99L225.79-28.99Q222.14-28.99 220.22-19.46L220.22-19.46L216.45 0L203.58 1.28L210.24-32.70L220.74-33.92L219.71-27.65L219.71-27.65Q222.72-33.92 231.94-33.92L231.94-33.92L231.94-33.92Q236.42-33.92 238.30-32.03L238.30-32.03L238.30-32.03Q240.19-30.14 240.19-25.92L240.19-25.92L240.19-25.92Q240.19-21.95 238.14-12.67L238.14-12.67L238.14-12.67Q237.18-8.51 237.18-6.94L237.18-6.94L237.18-6.94Q237.18-5.38 238.05-4.48L238.05-4.48L238.05-4.48Q238.91-3.58 240.19-3.46L240.19-3.46L240.19-3.46Q239.55-1.28 237.34 0L237.34 0L237.34 0Q235.14 1.28 232.26 1.28ZM259.26 1.28L259.26 1.28L259.26 1.28Q245.18 1.28 245.18-11.97L245.18-11.97L245.18-11.97Q245.18-21.38 250.37-27.46L250.37-27.46L250.37-27.46Q255.87-33.92 265.41-33.92L265.41-33.92L265.41-33.92Q272.32-33.92 275.84-30.72L275.84-30.72L275.84-30.72Q279.36-27.52 279.36-20.80L279.36-20.80L279.36-20.80Q279.36-10.56 273.86-4.61L273.86-4.61L273.86-4.61Q268.48 1.28 259.26 1.28ZM260.93-26.56L260.93-26.56L260.93-26.56Q260.16-24.83 259.55-22.24L259.55-22.24L259.55-22.24Q258.94-19.65 258.18-15.55L258.18-15.55L258.18-15.55Q257.41-11.46 257.41-6.40L257.41-6.40L257.41-6.40Q257.41-4.74 257.95-3.65L257.95-3.65L257.95-3.65Q258.50-2.56 259.97-2.56L259.97-2.56L259.97-2.56Q261.44-2.56 262.37-3.26L262.37-3.26L262.37-3.26Q263.30-3.97 264-5.63L264-5.63L264-5.63Q265.28-8.58 266.30-14.05L266.30-14.05L266.30-14.05Q267.33-19.52 267.42-21.89L267.42-21.89L267.42-21.89Q267.52-24.26 267.52-26.02L267.52-26.02L267.52-26.02Q267.52-27.78 267.01-28.93L267.01-28.93L267.01-28.93Q266.50-30.08 265.06-30.08L265.06-30.08L265.06-30.08Q263.62-30.08 262.66-29.18L262.66-29.18L262.66-29.18Q261.70-28.29 260.93-26.56ZM306.37-31.55L306.37-31.55L306.37-31.55Q308.48-33.92 312.13-33.92L312.13-33.92L312.13-33.92Q314.37-33.92 316.10-32.70L316.10-32.70L316.10-32.70Q317.82-31.49 317.82-29.22L317.82-29.22L317.82-29.22Q317.82-26.94 317.12-24.51L317.12-24.51L317.12-24.51Q316.42-22.08 315.33-19.58L315.33-19.58L315.33-19.58Q313.15-14.72 310.14-10.69L310.14-10.69L310.14-10.69Q305.92-4.86 301.86-1.79L301.86-1.79L301.86-1.79Q297.79 1.28 293.38 1.28L293.38 1.28L293.38 1.28Q289.79 1.28 287.62 0.45L287.62 0.45L287.62 0.45Q287.23-12.99 286.75-17.79L286.75-17.79L286.75-17.79Q286.27-22.59 285.89-25.22L285.89-25.22L285.89-25.22Q285.25-30.34 283.33-31.55L283.33-31.55L283.33-31.55Q284.80-32.83 286.24-33.38L286.24-33.38L286.24-33.38Q287.68-33.92 290.66-33.92L290.66-33.92L290.66-33.92Q293.63-33.92 295.74-31.58L295.74-31.58L295.74-31.58Q297.86-29.25 298.27-25.12L298.27-25.12L298.27-25.12Q298.69-20.99 298.69-16L298.69-16L298.69-16Q298.69-11.01 298.30-4.99L298.30-4.99L298.30-4.99Q300.29-6.40 302.40-10.69L302.40-10.69L302.40-10.69Q305.28-16.64 306.30-23.81L306.30-23.81L306.30-23.81Q306.62-25.98 306.62-28.29L306.62-28.29L306.62-28.29Q306.62-30.59 306.37-31.55ZM322.34-1.92L322.34-1.92L322.34-1.92Q320.83-3.58 320.16-6.21L320.16-6.21L320.16-6.21Q319.49-8.83 319.49-13.12L319.49-13.12L319.49-13.12Q319.49-17.41 320.96-21.31L320.96-21.31L320.96-21.31Q322.43-25.22 325.12-28.03L325.12-28.03L325.12-28.03Q330.62-33.92 339.71-33.92L339.71-33.92L339.71-33.92Q342.98-33.92 345.34-32.83L345.34-32.83L356.29-33.92L351.55-8.96L351.55-8.96Q351.36-8.19 351.36-6.78L351.36-6.78L351.36-6.78Q351.36-5.38 352.22-4.48L352.22-4.48L352.22-4.48Q353.09-3.58 354.37-3.46L354.37-3.46L354.37-3.46Q353.73-1.28 351.39 0L351.39 0L351.39 0Q349.06 1.28 346.43 1.28L346.43 1.28L346.43 1.28Q343.81 1.28 342.05 0.29L342.05 0.29L342.05 0.29Q340.29-0.70 339.78-2.37L339.78-2.37L339.78-2.37Q338.75-0.77 336.58 0.26L336.58 0.26L336.58 0.26Q334.40 1.28 331.49 1.28L331.49 1.28L331.49 1.28Q328.58 1.28 326.21 0.51L326.21 0.51L326.21 0.51Q323.84-0.26 322.34-1.92ZM335.84-27.90L335.84-27.90L335.84-27.90Q335.10-26.75 334.46-24.80L334.46-24.80L334.46-24.80Q333.82-22.85 332.77-17.63L332.77-17.63L332.77-17.63Q331.71-12.42 331.71-8.70L331.71-8.70L331.71-8.70Q331.71-4.99 332.29-3.90L332.29-3.90L332.29-3.90Q332.86-2.82 333.89-2.82L333.89-2.82L333.89-2.82Q335.94-2.82 337.44-4.77L337.44-4.77L337.44-4.77Q338.94-6.72 339.52-10.18L339.52-10.18L342.91-28.93L342.91-28.93Q341.57-30.08 340-30.08L340-30.08L340-30.08Q338.43-30.08 337.50-29.57L337.50-29.57L337.50-29.57Q336.58-29.06 335.84-27.90Z"
        fill="url(#editing-shiny-gradient2)"></path>
    </g>
  </g>
  <style>
    text {
      font-size: 64px;
      font-family: Arial Black;
      dominant-baseline: central;
      text-anchor: middle;
    }
  </style>
</svg>